# xmcd CD Database Entry
#
# Track frame offsets:
# 150
# 21637
# 37667
# 61195
# 79822
# 94945
# 117322
# 138320
# 151230
# 172100
# 199185
# 217697
# 235332
# 255840
# 278690
# 299510
# 318597
# 332845
#
# Disc length: 4751 seconds
#
# Revision: 2
# Processed by: cddbd v1.4PL0 Copyright (c) Steve Scherf et al.
# Submitted via: tcd 2.0b
#
DISCID=fe128d12
DTITLE=Various Artist - Death... is just the beginning - Vol. 6 - C
DTITLE=D 2
DYEAR=1900
DGENRE=
TTITLE0=Children of Bodom - Hate me!
TTITLE1=Destruction - Whiplash
TTITLE2=Crematory - Time for tears
TTITLE3=Thetre of tragedy - City of light
TTITLE4=Dimmu borgir - Behind the curtains...
TTITLE5=Hypocrisy - Fire in the sky
TTITLE6=Orphanage - Inside
TTITLE7=Dismember - Beyond good and evil
TTITLE8=Agathodaimon - Tongue of thorns
TTITLE9=Satyricon - Blessed from below
TTITLE10=Raise hell - Devilyn
TTITLE11=Kataklism - Manifestation
TTITLE12=Gorgoroth - Incipit Satan
TTITLE13=Opprobium - Massacre of the unborn
TTITLE14=Bal-Sagoth - The voyagers beneath...
TTITLE15=Mortification - Dead man walking (live)
TTITLE16=Soulreaper - Satanized
TTITLE17=Susperia - Of hate we breed
EXTD=
EXTT0=
EXTT1=
EXTT2=
EXTT3=
EXTT4=
EXTT5=
EXTT6=
EXTT7=
EXTT8=
EXTT9=
EXTT10=
EXTT11=
EXTT12=
EXTT13=
EXTT14=
EXTT15=
EXTT16=
EXTT17=
PLAYORDER=
